<?xml version="1.0" standalone="no"?>
<!DOCTYPE svg PUBLIC "-//W3C//DTD SVG 1.1//EN" "http://www.w3.org/Graphics/SVG/1.1/DTD/svg11.dtd" >
<svg xmlns="http://www.w3.org/2000/svg" xmlns:xlink="http://www.w3.org/1999/xlink" version="1.1">
<metadata></metadata>
<defs>
<font id="nasalizationregular" horiz-adv-x="1671" >
<font-face units-per-em="2048" ascent="1638" descent="-410" />
<missing-glyph horiz-adv-x="546" />
<glyph horiz-adv-x="0" />
<glyph unicode="&#xd;" horiz-adv-x="546" />
<glyph horiz-adv-x="546" />
<glyph unicode=" "  horiz-adv-x="546" />
<glyph unicode="&#x09;" horiz-adv-x="546" />
<glyph unicode="&#xa0;" horiz-adv-x="546" />
<glyph unicode="!" horiz-adv-x="479" d="M115 1421h254l-33 -934h-186zM125 0v279h233v-279h-233z" />
<glyph unicode="&#x22;" horiz-adv-x="782" d="M94 938zM94 1550h209l-27 -612h-153zM477 1550h209l-27 -612h-153z" />
<glyph unicode="#" horiz-adv-x="1275" d="M86 350v150h231v379h-231v149h231v354h150v-354h340v354h149v-354h232v-149h-232v-379h232v-150h-232v-350h-149v350h-340v-350h-150v350h-231zM467 500h340v379h-340v-379z" />
<glyph unicode="$" horiz-adv-x="1269" d="M137 901q0 143 82 228t270 85h105v289h147v-289h349v-208h-598q-76 0 -109 -34t-33 -87t32 -89t122 -36h254q113 0 185.5 -23.5t114.5 -63.5t58.5 -94.5t16.5 -115.5q0 -74 -19.5 -134.5t-62.5 -103.5t-111 -67.5t-162 -24.5h-37v-254h-147v254h-444v211h628q78 0 110 34 t32 87q0 51 -31 88t-123 37h-256q-113 0 -184.5 24.5t-113.5 67.5t-58.5 99.5t-16.5 119.5z" />
<glyph unicode="%" horiz-adv-x="1730" d="M59 0zM59 1002q0 195 88 293t254 98t255.5 -98.5t89.5 -292.5q0 -193 -89.5 -292t-255.5 -99q-168 0 -255 99t-87 292zM197 1004q0 -129 47 -190.5t157 -61.5q109 0 157 61.5t48 190.5t-48 189.5t-157 60.5q-111 0 -157.5 -60.5t-46.5 -189.5zM237 0l1086 1382h161 l-1081 -1382h-166zM985 379q0 195 88 293t254 98t255.5 -98.5t89.5 -292.5q0 -193 -89.5 -292t-255.5 -99q-168 0 -255 99t-87 292zM1123 381q0 -129 47 -190.5t157 -61.5q109 0 157 61.5t48 190.5t-48 189.5t-157 60.5q-111 0 -157.5 -60.5t-46.5 -189.5z" />
<glyph unicode="&#x26;" horiz-adv-x="1566" d="M88 385q0 68 16.5 122t57.5 101t110.5 93.5t178.5 95.5l57 26l-72 84q-53 59 -85 130t-32 163q0 72 23 135.5t68 111.5t109.5 75.5t150.5 27.5h192q88 0 152.5 -27.5t107.5 -75.5t63.5 -111.5t20.5 -135.5q0 -117 -59.5 -199.5t-200.5 -152.5l-127 -64l244 -280l180 241 h256l-299 -397l305 -348h-276l-160 182q-53 -59 -99 -95t-91 -55.5t-92.5 -25.5t-100.5 -6h-233q-74 0 -140.5 22.5t-117 69.5t-79 120t-28.5 173zM317 416q0 -92 48.5 -148.5t134.5 -56.5h188q70 0 125 25.5t121 101.5l-309 352l-66 -33q-72 -37 -119 -64.5t-74.5 -55 t-38 -56t-10.5 -65.5zM553 1178q0 -55 20.5 -95.5t61.5 -85.5l70 -79l126 61q78 37 118 81t40 118q0 68 -34.5 118t-120.5 50h-123q-84 0 -121 -48t-37 -120z" />
<glyph unicode="'" horiz-adv-x="397" d="M94 1550h209l-27 -612h-153z" />
<glyph unicode="(" horiz-adv-x="806" d="M166 184v924q0 193 28.5 330t94 225t171 129t259.5 41h31v-150h-31q-113 0 -189.5 -27.5t-125 -92t-69 -172t-20.5 -265.5v-960q0 -158 20.5 -265.5t69 -172t125 -92t189.5 -27.5h31v-150h-31q-154 0 -259.5 41t-171 129t-94 225.5t-28.5 329.5z" />
<glyph unicode=")" horiz-adv-x="806" d="M57 -391h31q113 0 189.5 27.5t125 92t69 172t20.5 265.5v960q0 158 -20.5 265.5t-69 172t-125 92t-189.5 27.5h-31v150h31q154 0 259.5 -41t171 -129t94 -225.5t28.5 -329.5v-924q0 -193 -28.5 -330t-94 -225t-171 -129t-259.5 -41h-31v150z" />
<glyph unicode="*" horiz-adv-x="1142" d="M94 1233l72 123l352 -223l-18 417h141l-18 -417l354 225l70 -123l-371 -193l373 -192l-72 -121l-352 223l18 -417h-139l18 417l-354 -227l-72 123l371 194z" />
<glyph unicode="+" horiz-adv-x="1267" d="M82 614v150h475v479h152v-479h475v-150h-475v-473h-152v473h-475z" />
<glyph unicode="," horiz-adv-x="526" d="M57 -166h25q80 0 80 88v357h233v-332q0 -291 -266 -291h-72v178z" />
<glyph unicode="-" horiz-adv-x="849" d="M59 545v209h732v-209h-732z" />
<glyph unicode="." horiz-adv-x="495" d="M131 0v279h234v-279h-234z" />
<glyph unicode="/" horiz-adv-x="931" d="M23 -434l677 1984h209l-676 -1984h-210z" />
<glyph unicode="0" horiz-adv-x="1531" d="M117 690q0 350 160.5 531.5t463.5 181.5t464 -181.5t161 -531.5t-159.5 -530t-465.5 -180q-305 0 -464.5 180t-159.5 530zM354 692q0 -240 91.5 -355.5t295.5 -115.5q205 0 295 116t90 355q0 238 -91 353.5t-294 115.5q-205 0 -296 -115.5t-91 -353.5z" />
<glyph unicode="1" horiz-adv-x="690" d="M59 1141v241h146q94 0 156.5 -17t99.5 -57t51 -102.5t14 -152.5v-1053h-241v1036q0 55 -22.5 80t-78.5 25h-125z" />
<glyph unicode="2" horiz-adv-x="1503" d="M137 113v209q0 84 14.5 149.5t49.5 113.5t93 80.5t146 53.5l582 133q74 16 101.5 51t27.5 84q0 70 -43 112t-127 42h-799v241h793q201 0 308.5 -99t107.5 -292q0 -154 -77 -243t-245 -127l-575 -129q-72 -16 -93.5 -54.5t-21.5 -97.5v-70q0 -29 27 -28h948v-242h-1102 q-115 0 -115 113z" />
<glyph unicode="3" horiz-adv-x="1394" d="M121 0v242h698q106 0 157.5 46t51.5 130q0 166 -211 166h-426v219h420q106 0 158.5 40t52.5 126q0 78 -49 125t-160 47h-690v241h690q123 0 210 -27.5t143.5 -77.5t83 -117.5t26.5 -147.5q0 -123 -50 -200t-147 -118q98 -41 149.5 -119.5t51.5 -203.5q0 -78 -26.5 -145.5 t-82 -118t-142.5 -79t-210 -28.5h-698z" />
<glyph unicode="4" horiz-adv-x="1441" d="M68 526q0 78 23.5 127t62.5 97l399 477q33 39 63.5 67.5t67.5 48t83 29.5t107 10h154q135 0 192.5 -64.5t57.5 -187.5v-1130h-244v287h-647q-176 0 -247.5 61.5t-71.5 177.5zM338 569q0 -33 21.5 -50t70.5 -17h604v571q0 68 -61 68h-109q-47 0 -71.5 -12.5t-53.5 -47.5 l-377 -448q-25 -29 -24 -64z" />
<glyph unicode="5" horiz-adv-x="1402" d="M156 733v537q0 113 114 112h955v-241h-801q-27 0 -27 -25v-252q0 -25 27 -24h410q139 0 230 -33t143.5 -88t72.5 -129t20 -156q0 -94 -24.5 -174t-77.5 -137t-137 -90t-203 -33h-696v242h704q104 0 148.5 53t44.5 143q0 82 -46 132.5t-167 50.5h-576q-115 0 -114 112z " />
<glyph unicode="6" horiz-adv-x="1460" d="M117 690q0 350 160.5 521t463.5 171h531v-241h-531q-174 0 -264 -77t-112 -249h579q213 0 310.5 -91t97.5 -284q0 -92 -23.5 -173t-76 -140t-134.5 -93t-196 -34h-236q-131 0 -236.5 43t-179 129t-113.5 215t-40 303zM360 621q12 -201 99.5 -290t259.5 -89h192 q104 0 153.5 55t49.5 145q0 92 -50 135.5t-144 43.5h-560z" />
<glyph unicode="7" horiz-adv-x="1333" d="M59 1141v241h867q96 0 160.5 -25.5t102.5 -65.5t54.5 -90t16.5 -101q0 -70 -28 -139.5t-87 -153.5l-594 -807h-303l713 965q35 47 34 90q0 33 -20.5 59.5t-77.5 26.5h-838z" />
<glyph unicode="8" horiz-adv-x="1486" d="M113 381q0 121 51 196.5t149 116.5q-96 39 -146 115t-50 195q0 84 26.5 153.5t83 119.5t143.5 77.5t210 27.5h325q123 0 210 -27.5t143.5 -77.5t83 -120t26.5 -153q0 -119 -50 -195t-147 -115q98 -41 150.5 -116.5t52.5 -196.5q0 -84 -26.5 -153.5t-83 -120t-143.5 -79 t-210 -28.5h-338q-123 0 -210 28.5t-142 79t-81.5 120t-26.5 153.5zM354 418q0 -86 52.5 -132t160.5 -46h351q111 0 161.5 46t50.5 132q0 172 -212 172h-351q-213 0 -213 -172zM360 967q0 -168 215 -168h336q213 0 213 168q0 80 -50 129t-161 49h-340q-111 0 -162 -49 t-51 -129z" />
<glyph unicode="9" horiz-adv-x="1460" d="M109 942q0 92 24.5 173t78.5 140.5t141 93t214 33.5h232q121 0 221 -37.5t172 -118.5t111.5 -208t39.5 -305q0 -362 -161.5 -537.5t-462.5 -175.5h-455v242h455q166 0 258 75.5t117 249.5h-580q-211 0 -308 91.5t-97 283.5zM344 940q0 -92 50 -135t145 -43h561 q-10 199 -97.5 289t-261.5 90h-192q-104 0 -154.5 -55.5t-50.5 -145.5z" />
<glyph unicode=":" horiz-adv-x="557" d="M162 0v279h234v-279h-234zM162 0zM162 774v279h234v-279h-234z" />
<glyph unicode=";" horiz-adv-x="557" d="M57 0zM57 -166h25q80 0 80 88v357h233v-332q0 -291 -266 -291h-72v178zM162 774v279h234v-279h-234z" />
<glyph unicode="&#x3c;" horiz-adv-x="1267" d="M82 688q0 59 20.5 95t69.5 57l1012 399v-162l-946 -366q-12 -8 -13 -23q0 -18 13 -22l946 -367v-160l-1012 398q-49 18 -69.5 55t-20.5 96z" />
<glyph unicode="=" horiz-adv-x="1267" d="M82 350v150h1102v-150h-1102zM82 879v149h1102v-149h-1102z" />
<glyph unicode="&#x3e;" horiz-adv-x="1267" d="M84 137v162l946 367q12 8 12 22q0 18 -12 23l-946 366v160l1012 -397q49 -18 69.5 -55t20.5 -97q0 -59 -20.5 -95t-69.5 -56z" />
<glyph unicode="?" horiz-adv-x="1165" d="M59 1212v209h635q106 0 182 -25.5t123.5 -72.5t70 -112.5t22.5 -145.5q0 -74 -19.5 -140.5t-60.5 -116.5t-103.5 -79t-150.5 -29h-119q-53 0 -75.5 -25.5t-22.5 -70.5v-117h-187v162q0 119 52.5 180.5t177.5 61.5h133q84 0 122 46t38 118t-43 114.5t-140 42.5h-635z M332 0v279h233v-279h-233z" />
<glyph unicode="@" horiz-adv-x="1568" d="M158 -6v821q0 217 100 322.5t281 105.5h526q178 0 262 -90t84 -283v-522q0 -195 -85 -277.5t-251 -82.5h-201q-166 0 -250.5 83t-84.5 277v76q0 199 85 279.5t250 80.5h367v76q0 111 -45 160t-147 49h-510q-102 0 -157.5 -60.5t-55.5 -191.5v-825q0 -131 55 -191.5 t158 -60.5h864v-174h-864q-180 0 -280.5 105.5t-100.5 322.5zM709 348q0 -102 42 -144t123 -42h201q82 0 124 42t42 144v262h-367q-82 0 -123.5 -41t-41.5 -145v-76z" />
<glyph unicode="A" horiz-adv-x="1605" d="M39 0l485 1229q39 98 110 138t181 40q109 0 179.5 -40t107.5 -138l467 -1229h-269l-419 1112q-18 47 -68 47q-49 0 -70 -47l-438 -1112h-266z" />
<glyph unicode="B" horiz-adv-x="1472" d="M168 113v1157q0 112 113 112h2h608q123 0 210 -27.5t143 -77.5t83 -120t27 -153q0 -121 -50.5 -195t-148.5 -113q98 -41 151.5 -117.5t53.5 -197.5q0 -84 -26.5 -153.5t-83 -120t-143.5 -79t-210 -28.5h-614q-115 0 -115 113zM406 262q0 -23 26 -22h471q111 0 162 47 t51 133q0 178 -213 178h-497v-336zM406 799h491q213 0 213 166q0 82 -50 131t-161 49h-467q-27 0 -26 -25v-321z" />
<glyph unicode="C" horiz-adv-x="1396" d="M117 690q0 350 160.5 521t463.5 171h535v-241h-535q-201 0 -292 -105.5t-91 -345.5q0 -238 90.5 -343t292.5 -105h535v-242h-535q-303 0 -463.5 171t-160.5 519z" />
<glyph unicode="D" horiz-adv-x="1509" d="M168 113v1157q0 112 113 112h2h487q305 0 464 -170t159 -522q0 -350 -159 -520t-464 -170h-487q-115 0 -115 113zM410 266q0 -25 26 -24h334q201 0 291 106.5t90 343.5q0 238 -89 343.5t-292 105.5h-334q-27 0 -26 -25v-850z" />
<glyph unicode="E" horiz-adv-x="1419" d="M113 377q0 119 51 197.5t147 119.5q-194 80 -194 310q0 84 26.5 153.5t83 119.5t143.5 77.5t210 27.5h692v-241h-692q-111 0 -160 -47t-49 -127q0 -164 211 -164h680v-219h-687q-210 0 -210 -166q0 -84 51 -130t157 -46h701v-242h-701q-123 0 -210 28.5t-143 79 t-81.5 120t-25.5 149.5z" />
<glyph unicode="F" horiz-adv-x="1357" d="M156 0v905q0 104 27.5 191.5t89 151t158.5 99t235 35.5h573v-241h-557q-82 0 -137.5 -18.5t-88 -50.5t-46 -74t-13.5 -91v-131h834v-229h-834v-547h-241z" />
<glyph unicode="G" horiz-adv-x="1492" d="M117 690q0 350 160.5 521t463.5 171h570v-241h-570q-201 0 -292 -105.5t-91 -345.5q0 -238 90.5 -343t292.5 -105h230q102 0 147 54t45 140q0 84 -42 130t-128 46h-307v211h332q186 0 276 -105.5t90 -285.5q0 -90 -23.5 -169t-75.5 -137t-133 -92t-198 -34h-213 q-303 0 -463.5 171t-160.5 519z" />
<glyph unicode="H" horiz-adv-x="1525" d="M168 0v1382h242v-563h706v563h244v-1382h-244v578h-706v-578h-242z" />
<glyph unicode="I" horiz-adv-x="575" d="M168 0v1382h242v-1382h-242z" />
<glyph unicode="J" horiz-adv-x="1193" d="M59 0v242h455q82 0 136.5 18.5t87 50t46 75.5t13.5 93v903h243v-905q0 -104 -28.5 -191t-90 -150.5t-158.5 -99.5t-235 -36h-469z" />
<glyph unicode="K" horiz-adv-x="1449" d="M168 0v1382h242v-585h133q88 0 144 5t93 23.5t62.5 52t54.5 91.5l211 413h260l-217 -430q-47 -92 -100.5 -153.5t-139.5 -98.5q49 -12 86 -33.5t69 -53t60.5 -75.5t59.5 -104l223 -434h-270l-211 410q-29 55 -55.5 87.5t-67.5 51t-102.5 24t-159.5 5.5h-133v-578h-242z " />
<glyph unicode="L" horiz-adv-x="1273" d="M154 477v905h241v-903q0 -49 13.5 -93t46 -75.5t87 -50t136.5 -18.5h536v-242h-550q-137 0 -234.5 36t-159 99.5t-89 150.5t-27.5 191z" />
<glyph unicode="M" horiz-adv-x="2256" d="M166 0v1098q0 139 82 224t250 85q147 0 233 -70.5t115 -201.5l194 -846q18 -78 93 -78q72 0 92 78l194 846q29 131 110 201.5t230 70.5q168 0 250 -85t82 -224v-1098h-240v1085q0 41 -25.5 65t-72.5 24q-43 0 -65.5 -19.5t-30.5 -54.5l-199 -846q-33 -137 -108.5 -208 t-219.5 -71q-145 0 -224 72t-109 207l-197 846q-8 35 -31.5 54.5t-64.5 19.5q-47 0 -72.5 -24t-25.5 -65v-1085h-240z" />
<glyph unicode="N" horiz-adv-x="1800" d="M166 0v1106q0 135 78 218t239 83q143 0 218 -68.5t118 -187.5l404 -883q12 -25 32.5 -41t55.5 -16q39 0 60.5 21.5t21.5 56.5v1093h243v-1103q0 -137 -78.5 -220.5t-238.5 -83.5q-72 0 -126 17.5t-94 51.5t-69 81t-49 106l-403 883q-27 59 -86 60q-41 0 -62.5 -22 t-21.5 -58v-1094h-242z" />
<glyph unicode="O" d="M117 688q0 350 160.5 522t463.5 172h189q303 0 463.5 -172t160.5 -522q0 -348 -160.5 -518t-463.5 -170h-189q-303 0 -463.5 170t-160.5 518zM358 688q0 -238 90.5 -342t292.5 -104h189q199 0 290 105.5t91 342.5q0 238 -90.5 344.5t-290.5 106.5h-189 q-201 0 -292 -106.5t-91 -346.5z" />
<glyph unicode="P" horiz-adv-x="1390" d="M164 1141v241h708q117 0 201 -33.5t138.5 -90t80 -132t25.5 -157.5q0 -78 -23.5 -156t-77 -139.5t-138.5 -100t-206 -38.5h-430q-35 0 -34 -35v-500h-242v547q0 117 51 168t166 51h498q51 0 88 16.5t59.5 43t33.5 60.5t11 70q0 76 -46 130.5t-144 54.5h-719z" />
<glyph unicode="Q" d="M117 690q0 350 160.5 521t463.5 171h189q303 0 463.5 -171t160.5 -521q0 -248 -80.5 -404.5t-236.5 -228.5l131 -274h-244l-106 221q-23 -4 -44.5 -4h-43.5h-189q-303 0 -463.5 171t-160.5 519zM358 690q0 -238 90.5 -343t292.5 -105h164l-139 293h244l120 -256 q94 45 137.5 145t43.5 266q0 238 -90.5 344.5t-290.5 106.5h-189q-201 0 -292 -106.5t-91 -344.5z" />
<glyph unicode="R" horiz-adv-x="1462" d="M164 1141v241h749q117 0 201 -33.5t138.5 -90t80 -132t25.5 -157.5q0 -66 -16.5 -130.5t-51.5 -120.5t-90 -99.5t-135 -65.5l321 -553h-268l-315 535h-361q-35 0 -34 -35v-500h-242v547q0 117 51 168t166 51h539q51 0 88 16.5t59.5 43t33.5 61.5t11 71q0 74 -46 128.5 t-146 54.5h-758z" />
<glyph unicode="S" horiz-adv-x="1439" d="M104 985q0 86 24 159t76 126t134 82.5t197 29.5h700v-241h-709q-94 0 -137 -46t-43 -118q0 -31 9.5 -60.5t33 -53t62 -37t100.5 -13.5h323q141 0 231.5 -36t142.5 -93t71.5 -131t19.5 -147q0 -88 -24.5 -162t-77.5 -128.5t-136 -85t-202 -30.5h-770v242h778 q98 0 144.5 48t46.5 124q0 33 -10.5 64.5t-35 55t-66.5 38t-105 14.5h-322q-139 0 -227 34.5t-138.5 92t-70 129t-19.5 143.5z" />
<glyph unicode="T" horiz-adv-x="1169" d="M59 1141v241h1051v-241h-403v-1141h-244v1141h-404z" />
<glyph unicode="U" horiz-adv-x="1499" d="M158 440v942h245v-923q0 -104 54.5 -160.5t175.5 -56.5h246q117 0 172 56t55 161v923h237v-942q0 -219 -112.5 -329.5t-335.5 -110.5h-291q-446 0 -446 440z" />
<glyph unicode="V" horiz-adv-x="1605" d="M39 1382h266l420 -1112q18 -47 68 -47q47 0 67 47l440 1112h269l-488 -1228q-39 -98 -109.5 -138.5t-178.5 -40.5q-102 0 -177 38t-114 141z" />
<glyph unicode="W" horiz-adv-x="2142" d="M66 1382h253l103 -1079q4 -45 23.5 -68.5t60.5 -23.5q72 0 86 76l164 848q27 135 104.5 203.5t212.5 68.5t210 -68.5t99 -203.5l154 -848q12 -76 88 -76q41 0 60.5 23.5t23.5 68.5l117 1079h252l-129 -1093q-8 -68 -29 -126.5t-59.5 -99t-96 -64.5t-139.5 -24 q-131 0 -211 67t-106 214l-152 844q-12 74 -84 74q-70 0 -84 -74l-162 -844q-29 -141 -107.5 -211t-217.5 -70q-80 0 -136.5 22.5t-93.5 64.5t-57 99.5t-29 127.5z" />
<glyph unicode="X" horiz-adv-x="1599" d="M39 0l618 721l-561 661h295l424 -510l445 510h299l-592 -680l596 -702h-295l-459 549l-471 -549h-299z" />
<glyph unicode="Y" horiz-adv-x="1411" d="M27 1382h292l388 -591l391 591h286l-557 -786v-596h-243v596z" />
<glyph unicode="Z" horiz-adv-x="1521" d="M117 303q0 119 55 198t168 126l750 321q71 29 71 101q0 43 -25.5 67.5t-78.5 24.5h-891v241h907q166 0 251 -78.5t85 -224.5q0 -119 -55.5 -197.5t-165.5 -125.5l-754 -322q-33 -14 -51 -40.5t-18 -61.5q0 -41 25.5 -65.5t76.5 -24.5h911v-242h-927q-166 0 -250 79 t-84 224z" />
<glyph unicode="[" horiz-adv-x="806" d="M168 -541v2374h582v-150h-433v-2074h433v-150h-582z" />
<glyph unicode="\" horiz-adv-x="931" d="M23 1550h208l678 -1984h-211z" />
<glyph unicode="]" horiz-adv-x="806" d="M57 -391h432v2074h-432v150h582v-2374h-582v150z" />
<glyph unicode="^" horiz-adv-x="1095" d="M104 748l291 712q20 49 56 69.5t96 20.5q59 0 95 -20.5t56 -69.5l289 -708h-162l-256 641q-8 14 -22 14q-16 0 -23 -14l-258 -645h-162z" />
<glyph unicode="_" horiz-adv-x="1052" d="M0 -279h1061v-155h-1061v155z" />
<glyph unicode="`" horiz-adv-x="704" d="M172 1591h242l229 -440h-217z" />
<glyph unicode="a" horiz-adv-x="1376" d="M133 330q0 74 19.5 131t62.5 97t112.5 61.5t170.5 21.5h514v82q0 63 -38 106t-128 43h-647v209h649q100 0 172 -26.5t118 -74.5t66.5 -113.5t20.5 -141.5v-508q0 -59 -9.5 -100t-34 -66.5t-68.5 -38t-112 -12.5h-505q-193 0 -278 88t-85 242zM346 342q0 -59 35 -95 t117 -36h454q59 0 60 55v203h-510q-86 0 -121 -34t-35 -93z" />
<glyph unicode="b" horiz-adv-x="1423" d="M156 463v1087h217v-469h479q215 0 341 -134t126 -406q0 -274 -126 -407.5t-341 -133.5h-299q-197 0 -297 113.5t-100 349.5zM373 473q0 -139 55 -200.5t188 -61.5h213q141 0 206 77t65 253t-64.5 253.5t-206.5 77.5h-456v-399z" />
<glyph unicode="c" horiz-adv-x="1232" d="M104 541q0 274 126 407t343 133h557v-209h-536q-141 0 -205.5 -77.5t-64.5 -253.5t64.5 -253t205.5 -77h536v-211h-557q-217 0 -343 133t-126 408z" />
<glyph unicode="d" horiz-adv-x="1423" d="M104 541q0 274 126 407t343 133h478v469h219v-1087q0 -236 -101.5 -349.5t-296.5 -113.5h-299q-217 0 -343 133t-126 408zM324 541q0 -176 64.5 -253t205.5 -77h215q131 0 186.5 61.5t55.5 200.5v399h-457q-141 0 -205.5 -77.5t-64.5 -253.5z" />
<glyph unicode="e" horiz-adv-x="1335" d="M133 356v369q0 76 20.5 141.5t66.5 113.5t117 74.5t173 26.5h350q193 0 279 -87t86 -244q0 -150 -84 -231t-283 -81h-514v-78q0 -66 38 -107.5t128 -41.5h661v-211h-661q-102 0 -173 26.5t-117 75t-66.5 113t-20.5 141.5zM344 608h508q88 0 124 35t36 94q0 61 -37 98 t-117 37h-348q-90 0 -128 -43t-38 -106v-115z" />
<glyph unicode="f" horiz-adv-x="768" d="M47 872v209h148v97q0 106 18 177.5t57 114.5t99.5 61.5t144.5 18.5h195v-198h-150q-78 0 -111.5 -35t-33.5 -127v-109h299v-209h-299v-872h-219v872h-148z" />
<glyph unicode="g" horiz-adv-x="1417" d="M104 565q0 262 126 389t343 127h299q195 0 296.5 -113.5t101.5 -349.5v-622q0 -115 -21.5 -197t-70 -133t-127 -74.5t-191.5 -23.5h-643v209h619q121 0 168 51t47 168v49h-478q-217 0 -343 128t-126 392zM324 557q0 -166 64.5 -240.5t205.5 -74.5h457v379 q0 133 -55.5 192t-186.5 59h-215q-141 0 -205.5 -74.5t-64.5 -240.5z" />
<glyph unicode="h" horiz-adv-x="1447" d="M156 0v1550h217v-469h381q274 0 409 -125t135 -348v-608h-219v608q0 125 -77.5 194.5t-247.5 69.5h-381v-872h-217z" />
<glyph unicode="i" horiz-adv-x="528" d="M156 0v1081h217v-1081h-217zM156 0zM156 1237v252h219v-252h-219z" />
<glyph unicode="j" horiz-adv-x="552" d="M-111 -225h142q80 0 113.5 34.5t33.5 127.5v1144h219v-1142q0 -106 -18.5 -178t-57 -115t-99 -61.5t-142.5 -18.5h-191v209zM0 0zM179 1237v252h219v-252h-219z" />
<glyph unicode="k" horiz-adv-x="1232" d="M156 0v1550h217v-917h100q63 0 105.5 3t71 15.5t49 37t44.5 67.5l181 325h235l-188 -340q-41 -72 -84 -117.5t-109 -74.5q78 -23 125 -73t96 -136l195 -340h-244l-180 319q-25 43 -47.5 69t-54 39t-77.5 18.5t-118 5.5h-100v-451h-217z" />
<glyph unicode="l" horiz-adv-x="528" d="M156 0v1550h217v-1550h-217z" />
<glyph unicode="m" horiz-adv-x="2113" d="M156 0v913q0 96 34.5 132t116.5 36h1112q276 0 411.5 -123.5t135.5 -349.5v-608h-219v608q0 129 -77 196.5t-249 67.5h-254v-872h-219v872h-549q-27 0 -26 -30v-842h-217z" />
<glyph unicode="n" horiz-adv-x="1447" d="M156 0v913q0 96 34.5 132t116.5 36h447q276 0 410 -123.5t134 -349.5v-608h-219v608q0 129 -76.5 196.5t-248.5 67.5h-355q-27 0 -26 -30v-842h-217z" />
<glyph unicode="o" horiz-adv-x="1374" d="M104 541q0 274 126 407t343 133h228q215 0 342 -134t127 -406q0 -274 -127 -407.5t-342 -133.5h-228q-217 0 -343 133t-126 408zM324 541q0 -176 64.5 -253t205.5 -77h186q141 0 206 77t65 253t-64.5 253.5t-206.5 77.5h-186q-141 0 -205.5 -77.5t-64.5 -253.5z" />
<glyph unicode="p" horiz-adv-x="1419" d="M152 -434v1052q0 236 100 349.5t297 113.5h299q215 0 341 -134t126 -406q0 -274 -126 -407.5t-341 -133.5h-479v-434h-217zM369 211h456q141 0 206 77t65 253t-64.5 253.5t-206.5 77.5h-213q-133 0 -188 -61t-55 -203v-397z" />
<glyph unicode="q" horiz-adv-x="1419" d="M104 541q0 274 126 407t343 133h299q195 0 296.5 -113.5t101.5 -349.5v-1052h-219v434h-478q-217 0 -343 133t-126 408zM324 541q0 -176 64.5 -253t205.5 -77h457v397q0 141 -55.5 202.5t-186.5 61.5h-215q-141 0 -205.5 -77.5t-64.5 -253.5z" />
<glyph unicode="r" horiz-adv-x="948" d="M154 0v766q0 164 66.5 239.5t225.5 75.5h445v-209h-381q-139 0 -139 -139v-733h-217z" />
<glyph unicode="s" horiz-adv-x="1200" d="M104 766q0 145 82 230t271 85h600v-209h-598q-76 0 -109 -30.5t-33 -91.5q0 -57 32 -87t122 -30h254q113 0 185.5 -24.5t114.5 -65.5t58.5 -96.5t16.5 -118.5q0 -72 -19.5 -132.5t-62.5 -103.5t-110.5 -67.5t-162.5 -24.5h-628v211h628q76 0 109 27.5t33 91.5 q0 66 -36 93.5t-118 27.5h-256q-113 0 -184.5 25.5t-113.5 69.5t-58.5 101.5t-16.5 118.5z" />
<glyph unicode="t" horiz-adv-x="768" d="M47 872v209h148v256h219v-256h299v-209h-299v-512q0 -92 33.5 -126.5t111.5 -34.5h150v-199h-195q-84 0 -144.5 18.5t-99.5 61.5t-57 114.5t-18 178.5v499h-148z" />
<glyph unicode="u" horiz-adv-x="1437" d="M150 426v655h219v-647q0 -96 68.5 -159.5t197.5 -63.5h176q129 0 196.5 63.5t67.5 159.5v647h213v-655q0 -94 -29.5 -172t-89 -134.5t-146.5 -88t-204 -31.5h-201q-117 0 -203.5 31.5t-146 88t-89 134.5t-29.5 172z" />
<glyph unicode="v" horiz-adv-x="1386" d="M39 1081h229l361 -868q12 -33 53 -33q43 0 57 33l375 868h234l-418 -964q-35 -78 -95.5 -110t-152.5 -32q-94 0 -154.5 33t-91.5 109z" />
<glyph unicode="w" horiz-adv-x="2000" d="M61 1081h236l96 -843q4 -35 21.5 -52.5t56.5 -17.5q37 0 54.5 15.5t25.5 43.5l154 656q25 109 96 164t200 55t197 -55.5t92 -163.5l146 -656q12 -59 82 -59q37 0 53 17.5t20 52.5l113 843h235l-120 -856q-16 -113 -86 -181.5t-217 -68.5q-127 0 -197 55.5t-94 168.5 l-146 657q-6 29 -27.5 41t-52.5 12q-68 0 -79 -53l-154 -657q-27 -113 -98.5 -168.5t-200.5 -55.5q-76 0 -128 18.5t-86 51.5t-52.5 79t-26.5 101z" />
<glyph unicode="x" horiz-adv-x="1394" d="M39 0l526 563l-491 518h274l359 -391l372 391h271l-508 -538l514 -543h-277l-381 416l-389 -416h-270z" />
<glyph unicode="y" horiz-adv-x="1325" d="M39 1081h229l326 -805q10 -29 22.5 -37t42.5 -8h29l367 850h231l-651 -1515h-234l203 473q-92 0 -134 30.5t-69 102.5z" />
<glyph unicode="z" horiz-adv-x="1277" d="M104 248q0 92 45.5 159.5t139.5 102.5l622 223q35 12 46.5 32.5t11.5 43.5q0 63 -84 63h-742v209h754q141 0 210 -67.5t69 -179.5q0 -100 -49.5 -165t-135.5 -96l-620 -225q-57 -23 -58 -74q0 -65 80 -65h2h758v-209h-770q-141 0 -210 67.5t-69 180.5z" />
<glyph unicode="{" horiz-adv-x="806" d="M109 571v150h104q27 0 52.5 9t44 30.5t29.5 58.5t11 90v592q0 184 76 258t254 74h70v-150h-70q-98 0 -141 -44t-43 -142v-588q0 -104 -31 -167.5t-78 -96.5q47 -31 78 -93.5t31 -168.5v-588q0 -98 43 -142t141 -44h70v-150h-70q-178 0 -254 75t-76 257v592q0 106 -41 147 t-96 41h-104z" />
<glyph unicode="|" horiz-adv-x="591" d="M221 -340v1972h150v-1972h-150z" />
<glyph unicode="}" horiz-adv-x="806" d="M57 -391h70q98 0 141 44t43 142v588q0 104 31 167.5t78 96.5q-47 31 -78 93.5t-31 168.5v588q0 98 -43 142t-141 44h-70v150h70q178 0 254 -75t76 -257v-592q0 -53 11 -90t29.5 -58.5t43 -30.5t53.5 -9h104v-150h-104q-55 0 -96 -41t-41 -147v-592q0 -184 -76 -258 t-254 -74h-70v150z" />
<glyph unicode="~" horiz-adv-x="1267" d="M82 561v170q41 53 101.5 86t156.5 33q82 0 152.5 -25.5t162.5 -70.5q70 -31 134.5 -54.5t142.5 -23.5q74 0 130 29.5t122 109.5v-170q-39 -51 -100.5 -85t-157.5 -34q-41 0 -79 7.5t-75 19.5t-77 29.5t-85 40.5q-70 33 -134 56t-140 23t-132.5 -29.5t-121.5 -111.5z" />
<glyph unicode="&#xa1;" horiz-adv-x="479" d="M117 -340l33 934h186l35 -934h-254zM127 803v278h233v-278h-233z" />
<glyph unicode="&#xa2;" horiz-adv-x="1269" d="M121 672q0 276 126 409t343 133h63v289h152v-289h342v-208h-537q-141 0 -205.5 -78t-64.5 -256q0 -174 64.5 -251t205.5 -77h537v-211h-342v-254h-152v254h-63q-217 0 -343 133t-126 406z" />
<glyph unicode="&#xa3;" horiz-adv-x="1331" d="M78 0v242h248v374h-248v183h248v106q0 104 28.5 191.5t90 151t158.5 99t235 35.5h342v-241h-326q-82 0 -137 -18.5t-88 -50.5t-46.5 -76t-13.5 -93v-104h602v-183h-602v-374h615v-242h-1106z" />
<glyph unicode="&#xa4;" horiz-adv-x="1345" d="M88 1178l107 106l186 -186q94 53 227 53h123q131 0 225 -53l187 186l106 -104l-186 -187q72 -109 72 -291q0 -180 -70 -290l182 -183l-104 -106l-187 186q-90 -51 -225 -51h-123q-137 0 -227 51l-186 -184l-105 104l182 183q-70 111 -69 290q0 184 69 291zM354 705 q0 -156 58.5 -225.5t189.5 -69.5h135q131 0 188.5 69.5t57.5 225.5t-58.5 225t-187.5 69h-135q-131 0 -189.5 -69.5t-58.5 -224.5z" />
<glyph unicode="&#xa5;" horiz-adv-x="1411" d="M27 1382h292l388 -591l391 591h286l-507 -716h419v-125h-469v-197h469v-125h-469v-219h-243v219h-469v125h469v197h-469v125h420z" />
<glyph unicode="&#xa6;" horiz-adv-x="591" d="M221 -340v848h150v-848h-150zM221 784v848h150v-848h-150z" />
<glyph unicode="&#xa7;" horiz-adv-x="1357" d="M86 1028q0 80 22.5 144.5t69.5 111.5t122 72.5t179 25.5h721v-208h-719q-96 0 -137 -41t-41 -113q0 -70 37 -116t119 -46h352q135 0 190.5 -61.5t55.5 -190.5v-299q102 -39 148 -129t46 -205q0 -80 -22.5 -144.5t-69.5 -111.5t-122.5 -72.5t-180.5 -25.5h-719v209h719 q94 0 136 41t42 113q0 70 -38 115.5t-117 45.5h-353q-135 0 -190 61.5t-55 190.5v297q-102 39 -148.5 129t-46.5 207zM467 442q0 -55 26.5 -82.5t86.5 -27.5h290v227q0 55 -26.5 83t-87.5 28h-289v-228z" />
<glyph unicode="&#xa8;" horiz-adv-x="937" d="M111 1237v252h219v-252h-219zM602 1237v252h219v-252h-219z" />
<glyph unicode="&#xa9;" d="M117 688q0 350 160.5 521t463.5 171h189q303 0 463.5 -171t160.5 -521q0 -348 -160.5 -519t-463.5 -171h-189q-303 0 -463.5 171t-160.5 519zM250 688q0 -283 127 -419t364 -136h189q238 0 363.5 136.5t125.5 418.5q0 285 -126 421t-363 136h-189q-238 0 -364.5 -136 t-126.5 -421zM473 698q0 186 86 276.5t246 90.5h282v-127h-282q-106 0 -154.5 -56.5t-48.5 -183.5q0 -125 47 -181t156 -56h282v-127h-282q-162 0 -247 90t-85 274z" />
<glyph unicode="&#xaa;" horiz-adv-x="970" d="M119 864q0 100 53 154.5t186 54.5h340v64q0 43 -24.5 72.5t-81.5 29.5h-428v143h428q137 0 194.5 -68.5t57.5 -174.5v-338q0 -84 -31 -121t-127 -37h-330q-127 0 -182 58.5t-55 162.5zM264 872q0 -39 22.5 -62.5t71.5 -23.5h295q45 0 45 48v122h-338q-96 0 -96 -84z" />
<glyph unicode="&#xab;" horiz-adv-x="860" d="M61 0zM61 559q0 51 19 92l231 467h146l-252 -522q-10 -16 -10 -37q0 -16 10 -37l252 -522h-146l-231 467q-18 39 -19 92zM403 559q0 51 19 92l231 467h146l-252 -522q-10 -16 -10 -37q0 -16 10 -37l252 -522h-146l-231 467q-18 39 -19 92z" />
<glyph unicode="&#xac;" horiz-adv-x="1267" d="M82 651v150h1102v-801h-150v651h-952z" />
<glyph unicode="&#xad;" horiz-adv-x="849" d="M59 545v209h732v-209h-732zM59 545z" />
<glyph unicode="&#xae;" d="M117 688q0 350 160.5 521t463.5 171h189q303 0 463.5 -171t160.5 -521q0 -348 -160.5 -519t-463.5 -171h-189q-303 0 -463.5 171t-160.5 519zM250 688q0 -283 127 -419t364 -136h189q238 0 363.5 136.5t125.5 418.5q0 285 -126 421t-363 136h-189q-238 0 -364.5 -136 t-126.5 -421zM522 944v127h398q61 0 106 -17.5t73.5 -47t42 -69.5t13.5 -85q0 -68 -36 -132.5t-120 -86.5l170 -293h-141l-168 283h-190q-18 0 -19 -19v-264h-127v289q0 63 28 89.5t87 26.5h285q55 0 78.5 31t23.5 72q0 39 -24.5 67.5t-77.5 28.5h-402z" />
<glyph unicode="&#xaf;" horiz-adv-x="1173" d="M111 1286v182h940v-182h-940z" />
<glyph unicode="&#xb0;" horiz-adv-x="796" d="M70 1081q0 166 71.5 246t198.5 80h133q127 0 199.5 -80t72.5 -246t-72.5 -245.5t-199.5 -79.5h-133q-127 0 -198.5 79.5t-71.5 245.5zM203 1081q0 -104 34.5 -149t114.5 -45h109q78 0 113.5 45t35.5 149t-35.5 150.5t-113.5 46.5h-109q-80 0 -114.5 -46t-34.5 -151z" />
<glyph unicode="&#xb1;" horiz-adv-x="1267" d="M82 36v150h1102v-150h-1102zM82 37zM82 755v150h475v479h152v-479h475v-150h-475v-473h-152v473h-475z" />
<glyph unicode="&#xb2;" horiz-adv-x="806" d="M59 623zM59 695v104q0 104 38 153.5t130 69.5l318 74q41 10 53 27.5t12 44.5q0 37 -18.5 55t-69.5 18h-438v142h436q111 0 170.5 -53.5t59.5 -157.5q0 -86 -42 -137.5t-137 -73.5l-315 -72q-29 -6 -42 -21.5t-13 -58.5v-26q0 -18 16 -19h512v-141h-596q-74 0 -74 72z" />
<glyph unicode="&#xb3;" horiz-adv-x="806" d="M84 623v141h395q53 0 74.5 21.5t21.5 68.5q0 43 -20 63.5t-78 20.5h-244v129h242q59 0 77.5 21.5t18.5 64.5q0 47 -19.5 67.5t-74.5 20.5h-393v142h393q133 0 187.5 -57.5t54.5 -145.5q0 -131 -94 -176q98 -49 98 -178q0 -86 -55.5 -144.5t-188.5 -58.5h-395zM84 623z " />
<glyph unicode="&#xb4;" horiz-adv-x="704" d="M51 1151l230 440h241l-256 -440h-215z" />
<glyph unicode="&#xb6;" horiz-adv-x="1501" d="M92 1174q0 84 23.5 153.5t74 118.5t130 76.5t190.5 27.5h596q129 0 181 -61.5t52 -183.5v-1743h-186v1677q0 47 -24.5 74.5t-77.5 27.5h-541q-106 0 -153.5 -48t-47.5 -130q0 -78 42 -130t134 -52h121q123 0 173 -57.5t50 -167.5v-1190h-186v1145q0 37 -21.5 59.5 t-68.5 22.5h-109q-92 0 -158.5 29.5t-109.5 81.5t-63.5 122t-20.5 148z" />
<glyph unicode="&#xb7;" horiz-adv-x="495" d="M131 516v279h234v-279h-234zM131 516z" />
<glyph unicode="&#xb8;" horiz-adv-x="550" d="M111 -377h24q76 0 76 86v242h217v-219q0 -272 -250 -273h-67v164z" />
<glyph unicode="&#xb9;" horiz-adv-x="806" d="M208 1241v142h168q59 0 97.5 -10.5t60 -33t29.5 -61.5t8 -94v-561h-139v551q0 41 -13.5 54t-54.5 13h-156zM209 623z" />
<glyph unicode="&#xba;" horiz-adv-x="980" d="M102 1012q0 188 84 279t226 91h153q143 0 226 -91t83 -279t-82.5 -278.5t-226.5 -90.5h-153q-141 0 -225.5 90t-84.5 279zM252 1012q0 -119 42 -172.5t132 -53.5h125q92 0 132 53.5t40 172.5q0 121 -40 174t-132 53h-125q-90 0 -132 -53t-42 -174z" />
<glyph unicode="&#xbb;" horiz-adv-x="860" d="M61 0l252 522q4 10 6.5 18.5t2.5 18.5q0 16 -9 37l-252 522h144l233 -467q18 -41 19 -92q0 -25 -5.5 -48.5t-13.5 -43.5l-233 -467h-144zM61 0zM403 0l252 522q4 10 6.5 18.5t2.5 18.5q0 16 -9 37l-252 522h144l233 -467q18 -41 19 -92q0 -25 -5.5 -48.5t-13.5 -43.5 l-233 -467h-144z" />
<glyph unicode="&#xbc;" horiz-adv-x="1771" d="M157 1241v142h168q59 0 97.5 -10.5t60 -33t29.5 -61.5t8 -94v-561h-139v551q0 41 -13.5 54t-54.5 13h-156zM158 0zM211 0l1086 1382h161l-1081 -1382h-166zM944 293q0 43 12 69.5t35 53.5l215 258q35 45 72.5 65.5t103.5 20.5h86q72 0 103.5 -35t31.5 -102v-623h-141v164 h-344q-96 0 -135 32.5t-39 96.5zM1099 317q0 -29 43 -28h320v301q0 29 -25 28h-59q-23 0 -36 -5t-28 -21l-202 -244q-12 -12 -13 -31z" />
<glyph unicode="&#xbd;" horiz-adv-x="1771" d="M102 0zM102 1241v142h168q59 0 97.5 -10.5t60 -33t29.5 -61.5t8 -94v-561h-139v551q0 41 -13.5 54t-54.5 13h-156zM155 0l1086 1382h161l-1081 -1382h-166zM977 72v104q0 104 38 153.5t130 69.5l318 74q41 10 53 27.5t12 44.5q0 37 -18.5 55t-69.5 18h-438v142h436 q111 0 170.5 -53.5t59.5 -157.5q0 -86 -42 -137.5t-137 -73.5l-315 -72q-29 -6 -42 -21.5t-13 -58.5v-26q0 -18 16 -19h512v-141h-596q-74 0 -74 72z" />
<glyph unicode="&#xbe;" horiz-adv-x="1771" d="M86 0zM86 623v141h395q53 0 74.5 21.5t21.5 68.5q0 43 -20 63.5t-78 20.5h-244v129h242q59 0 77.5 21.5t18.5 64.5q0 47 -19.5 67.5t-74.5 20.5h-393v142h393q133 0 187.5 -57.5t54.5 -145.5q0 -131 -94 -176q98 -49 98 -178q0 -86 -55.5 -144.5t-188.5 -58.5h-395z M285 0l1086 1382h161l-1081 -1382h-166zM1018 293q0 43 12 69.5t35 53.5l215 258q35 45 72.5 65.5t103.5 20.5h86q72 0 103.5 -35t31.5 -102v-623h-141v164h-344q-96 0 -135 32.5t-39 96.5zM1173 317q0 -29 43 -28h320v301q0 29 -25 28h-59q-23 0 -36 -5t-28 -21l-202 -244 q-12 -12 -13 -31z" />
<glyph unicode="&#xbf;" horiz-adv-x="1165" d="M59 16q0 74 19.5 140.5t60.5 117t103.5 79t150.5 28.5h119q53 0 75.5 25.5t22.5 70.5v117h187v-162q0 -119 -52.5 -180.5t-177.5 -61.5h-133q-84 0 -122 -46t-38 -117q0 -72 43 -115t140 -43h635v-209h-635q-106 0 -182 25.5t-123.5 72.5t-70 113t-22.5 145zM586 803v278 h233v-278h-233z" />
<glyph unicode="&#xc0;" horiz-adv-x="1605" d="M39 0l485 1229q39 98 110 138t181 40q109 0 179.5 -40t107.5 -138l467 -1229h-269l-419 1112q-18 47 -68 47q-49 0 -70 -47l-438 -1112h-266zM39 0zM547 1892h242l229 -440h-217z" />
<glyph unicode="&#xc1;" horiz-adv-x="1605" d="M39 0l485 1229q39 98 110 138t181 40q109 0 179.5 -40t107.5 -138l467 -1229h-269l-419 1112q-18 47 -68 47q-49 0 -70 -47l-438 -1112h-266zM39 0zM594 1452l230 440h241l-256 -440h-215z" />
<glyph unicode="&#xc2;" horiz-adv-x="1605" d="M39 0l485 1229q39 98 110 138t181 40q109 0 179.5 -40t107.5 -138l467 -1229h-269l-419 1112q-18 47 -68 47q-49 0 -70 -47l-438 -1112h-266zM39 0zM400 1452l184 336q29 57 86 80.5t139 23.5q80 0 136.5 -24.5t84.5 -79.5l187 -336h-232l-137 256q-10 18 -41 18t-41 -18 l-135 -256h-231z" />
<glyph unicode="&#xc3;" horiz-adv-x="1605" d="M39 0l485 1229q39 98 110 138t181 40q109 0 179.5 -40t107.5 -138l467 -1229h-269l-419 1112q-18 47 -68 47q-49 0 -70 -47l-438 -1112h-266zM39 0zM334 1587v182h940v-182h-940z" />
<glyph unicode="&#xc4;" horiz-adv-x="1605" d="M39 0l485 1229q39 98 110 138t181 40q109 0 179.5 -40t107.5 -138l467 -1229h-269l-419 1112q-18 47 -68 47q-49 0 -70 -47l-438 -1112h-266zM39 0zM453 1538v252h219v-252h-219zM944 1538v252h219v-252h-219z" />
<glyph unicode="&#xc5;" horiz-adv-x="1605" d="M39 0l485 1229q39 98 110 138t181 40q109 0 179.5 -40t107.5 -138l467 -1229h-269l-419 1112q-18 47 -68 47q-49 0 -70 -47l-438 -1112h-266zM39 0zM529 1657q0 121 54 178t150 57h142q94 0 149.5 -57t55.5 -178q0 -119 -55.5 -177.5t-149.5 -58.5h-142q-96 0 -150 58.5 t-54 177.5zM641 1657q0 -68 24.5 -98.5t80.5 -30.5h114q53 0 79 30.5t26 98.5q0 70 -25.5 100.5t-79.5 30.5h-114q-55 0 -80 -31t-25 -100z" />
<glyph unicode="&#xc6;" horiz-adv-x="2068" d="M39 0l440 1151q20 59 49 107.5t69 81t94 50t126 17.5q86 0 148 -25h954v-241h-786q0 -10 1 -17.5t1 -17.5v-303h774v-219h-774v-113q0 -49 13 -91t46 -73t87 -48t136 -17h504v-242h-518q-137 0 -234.5 35t-159 96.5t-89 147.5t-27.5 190v625q0 37 -21.5 58.5t-60.5 21.5 q-35 0 -56.5 -16.5t-31.5 -43.5l-424 -1114h-260z" />
<glyph unicode="&#xc7;" horiz-adv-x="1396" d="M117 0zM117 690q0 350 160.5 521t463.5 171h535v-241h-535q-201 0 -292 -105.5t-91 -345.5q0 -238 90.5 -343t292.5 -105h535v-242h-535q-303 0 -463.5 171t-160.5 519zM609 -377h24q76 0 76 86v242h217v-219q0 -272 -250 -273h-67v164z" />
<glyph unicode="&#xc8;" horiz-adv-x="1419" d="M113 0zM113 377q0 119 51 197.5t147 119.5q-195 80 -194 312q0 82 26.5 151.5t83 119.5t143.5 77.5t210 27.5h692v-241h-692q-111 0 -160 -47t-49 -127q0 -164 211 -164h680v-219h-687q-211 0 -210 -168q0 -82 51 -128t157 -46h701v-242h-701q-123 0 -210 28.5t-143 79 t-81.5 120t-25.5 149.5zM541 1892h242l229 -440h-217z" />
<glyph unicode="&#xc9;" horiz-adv-x="1419" d="M113 0zM113 377q0 119 51 197.5t147 119.5q-195 80 -194 312q0 82 26.5 151.5t83 119.5t143.5 77.5t210 27.5h692v-241h-692q-111 0 -160 -47t-49 -127q0 -164 211 -164h680v-219h-687q-211 0 -210 -168q0 -82 51 -128t157 -46h701v-242h-701q-123 0 -210 28.5t-143 79 t-81.5 120t-25.5 149.5zM586 1452l230 440h241l-256 -440h-215z" />
<glyph unicode="&#xca;" horiz-adv-x="1419" d="M113 0zM113 377q0 119 51 197.5t147 119.5q-195 80 -194 312q0 82 26.5 151.5t83 119.5t143.5 77.5t210 27.5h692v-241h-692q-111 0 -160 -47t-49 -127q0 -164 211 -164h680v-219h-687q-211 0 -210 -168q0 -82 51 -128t157 -46h701v-242h-701q-123 0 -210 28.5t-143 79 t-81.5 120t-25.5 149.5zM383 1452l184 336q29 57 86 80.5t139 23.5q80 0 136.5 -24.5t84.5 -79.5l187 -336h-232l-137 256q-10 18 -41 18t-41 -18l-135 -256h-231z" />
<glyph unicode="&#xcb;" horiz-adv-x="1419" d="M113 0zM113 377q0 119 51 197.5t147 119.5q-195 80 -194 312q0 82 26.5 151.5t83 119.5t143.5 77.5t210 27.5h692v-241h-692q-111 0 -160 -47t-49 -127q0 -164 211 -164h680v-219h-687q-211 0 -210 -168q0 -82 51 -128t157 -46h701v-242h-701q-123 0 -210 28.5t-143 79 t-81.5 120t-25.5 149.5zM441 1538v252h219v-252h-219zM932 1538v252h219v-252h-219z" />
<glyph unicode="&#xcc;" horiz-adv-x="600" d="M55 0zM55 1892h242l229 -440h-217zM193 0v1382h242v-1382h-242z" />
<glyph unicode="&#xcd;" horiz-adv-x="604" d="M78 0zM78 1452l230 440h241l-256 -440h-215zM168 0v1382h242v-1382h-242z" />
<glyph unicode="&#xce;" horiz-adv-x="733" d="M-41 1452l184 336q29 57 86 80.5t139 23.5q80 0 136.5 -24.5t84.5 -79.5l187 -336h-232l-137 256q-10 18 -41 18t-41 -18l-135 -256h-231zM0 0zM246 0v1382h242v-1382h-242z" />
<glyph unicode="&#xcf;" horiz-adv-x="651" d="M-30 1538v252h219v-252h-219zM0 0zM213 0v1382h242v-1382h-242zM461 1538v252h219v-252h-219z" />
<glyph unicode="&#xd0;" horiz-adv-x="1509" d="M23 584v219h145v467q0 113 115 112h487q305 0 464 -170t159 -522q0 -350 -159 -520t-464 -170h-487q-115 0 -115 113v471h-145zM410 266q0 -25 26 -24h334q201 0 291 106.5t90 343.5q0 238 -89 343.5t-292 105.5h-334q-27 0 -26 -25v-313h368v-219h-368v-318z" />
<glyph unicode="&#xd1;" horiz-adv-x="1800" d="M166 0v1106q0 135 78 218t239 83q143 0 218 -68.5t118 -187.5l404 -883q12 -25 32.5 -41t55.5 -16q39 0 60.5 21.5t21.5 56.5v1093h243v-1103q0 -137 -78.5 -220.5t-238.5 -83.5q-72 0 -126 17.5t-94 51.5t-69 81t-49 106l-403 883q-27 59 -86 60q-41 0 -62.5 -22 t-21.5 -58v-1094h-242zM166 0zM430 1587v182h940v-182h-940z" />
<glyph unicode="&#xd2;" d="M117 0zM117 688q0 350 160.5 522t463.5 172h189q303 0 463.5 -172t160.5 -522q0 -348 -160.5 -518t-463.5 -170h-189q-303 0 -463.5 170t-160.5 518zM358 688q0 -238 90.5 -342t292.5 -104h189q199 0 290 105.5t91 342.5q0 238 -90.5 344.5t-290.5 106.5h-189 q-201 0 -292 -106.5t-91 -346.5zM573 1892h242l229 -440h-217z" />
<glyph unicode="&#xd3;" d="M117 0zM117 688q0 350 160.5 522t463.5 172h189q303 0 463.5 -172t160.5 -522q0 -348 -160.5 -518t-463.5 -170h-189q-303 0 -463.5 170t-160.5 518zM358 688q0 -238 90.5 -342t292.5 -104h189q199 0 290 105.5t91 342.5q0 238 -90.5 344.5t-290.5 106.5h-189 q-201 0 -292 -106.5t-91 -346.5zM624 1452l230 440h241l-256 -440h-215z" />
<glyph unicode="&#xd4;" d="M117 0zM117 688q0 350 160.5 522t463.5 172h189q303 0 463.5 -172t160.5 -522q0 -348 -160.5 -518t-463.5 -170h-189q-303 0 -463.5 170t-160.5 518zM358 688q0 -238 90.5 -342t292.5 -104h189q199 0 290 105.5t91 342.5q0 238 -90.5 344.5t-290.5 106.5h-189 q-201 0 -292 -106.5t-91 -346.5zM426 1452l184 336q29 57 86 80.5t139 23.5q80 0 136.5 -24.5t84.5 -79.5l187 -336h-232l-137 256q-10 18 -41 18t-41 -18l-135 -256h-231z" />
<glyph unicode="&#xd5;" d="M117 0zM117 688q0 350 160.5 522t463.5 172h189q303 0 463.5 -172t160.5 -522q0 -348 -160.5 -518t-463.5 -170h-189q-303 0 -463.5 170t-160.5 518zM358 688q0 -238 90.5 -342t292.5 -104h189q199 0 290 105.5t91 342.5q0 238 -90.5 344.5t-290.5 106.5h-189 q-201 0 -292 -106.5t-91 -346.5zM365 1587v182h940v-182h-940z" />
<glyph unicode="&#xd6;" d="M117 0zM117 688q0 350 160.5 522t463.5 172h189q303 0 463.5 -172t160.5 -522q0 -348 -160.5 -518t-463.5 -170h-189q-303 0 -463.5 170t-160.5 518zM358 688q0 -238 90.5 -342t292.5 -104h189q199 0 290 105.5t91 342.5q0 238 -90.5 344.5t-290.5 106.5h-189 q-201 0 -292 -106.5t-91 -346.5zM480 1538v252h219v-252h-219zM971 1538v252h219v-252h-219z" />
<glyph unicode="&#xd7;" horiz-adv-x="1267" d="M156 319l370 369l-370 373l106 104l371 -368l373 368l104 -104l-373 -373l371 -369l-104 -106l-371 371l-371 -369z" />
<glyph unicode="&#xd8;" d="M117 688q0 350 160.5 522t463.5 172h189q59 0 112.5 -7t100.5 -19l100 168h174l-135 -226q135 -78 203.5 -229t68.5 -381q0 -348 -160.5 -518t-463.5 -170h-189q-119 0 -213 25l-98 -166h-176l133 223q-270 158 -270 606zM358 688q0 -154 37 -251t117 -144l500 842 q-37 6 -82 6h-189q-201 0 -292 -106.5t-91 -346.5zM659 246q18 -2 39 -3t43 -1h189q199 0 290 105t91 343q0 301 -154 397z" />
<glyph unicode="&#xd9;" horiz-adv-x="1499" d="M158 0zM158 440v942h245v-923q0 -104 54.5 -160.5t175.5 -56.5h246q117 0 172 56t55 161v923h237v-942q0 -219 -112.5 -329.5t-335.5 -110.5h-291q-446 0 -446 440zM489 1892h242l229 -440h-217z" />
<glyph unicode="&#xda;" horiz-adv-x="1499" d="M158 0zM158 440v942h245v-923q0 -104 54.5 -160.5t175.5 -56.5h246q117 0 172 56t55 161v923h237v-942q0 -219 -112.5 -329.5t-335.5 -110.5h-291q-446 0 -446 440zM538 1452l230 440h241l-256 -440h-215z" />
<glyph unicode="&#xdb;" horiz-adv-x="1499" d="M158 0zM158 440v942h245v-923q0 -104 54.5 -160.5t175.5 -56.5h246q117 0 172 56t55 161v923h237v-942q0 -219 -112.5 -329.5t-335.5 -110.5h-291q-446 0 -446 440zM340 1452l184 336q29 57 86 80.5t139 23.5q80 0 136.5 -24.5t84.5 -79.5l187 -336h-232l-137 256 q-10 18 -41 18t-41 -18l-135 -256h-231z" />
<glyph unicode="&#xdc;" horiz-adv-x="1499" d="M158 0zM158 440v942h245v-923q0 -104 54.5 -160.5t175.5 -56.5h246q117 0 172 56t55 161v923h237v-942q0 -219 -112.5 -329.5t-335.5 -110.5h-291q-446 0 -446 440zM396 1538v252h219v-252h-219zM887 1538v252h219v-252h-219z" />
<glyph unicode="&#xdd;" horiz-adv-x="1411" d="M27 0zM27 1382h292l388 -591l391 591h286l-557 -786v-596h-243v596zM493 1452l230 440h241l-256 -440h-215z" />
<glyph unicode="&#xde;" horiz-adv-x="1439" d="M166 0v195q0 154 61.5 219t204.5 65h432q55 0 95 18.5t66 48t37 69.5t11 83t-11 83t-37 70t-65.5 48.5t-95.5 18.5h-432q-143 0 -204.5 62t-61.5 204v198h242v-151q0 -80 84 -80h364q125 0 213 -40t143.5 -104.5t80 -145.5t24.5 -163t-24.5 -162.5t-80 -144 t-143.5 -103.5t-213 -40h-364q-84 0 -84 -98v-150h-242z" />
<glyph unicode="&#xdf;" horiz-adv-x="1748" d="M156 0v1143q0 117 20.5 194.5t63.5 124.5t108.5 67.5t155.5 20.5h215q172 0 243.5 -82t71.5 -256v-182q0 -100 90 -100h82q223 0 331 -115t108 -350q0 -240 -109 -352.5t-330 -112.5h-477v211h451q133 0 189 59.5t56 194.5t-55 195.5t-190 60.5h-119q-133 0 -189.5 66.5 t-56.5 207.5v195q0 86 -38 124t-122 38h-104q-94 0 -136 -43t-42 -154v-1155h-217z" />
<glyph unicode="&#xe0;" horiz-adv-x="1376" d="M133 0zM133 330q0 74 19.5 131t62.5 97t112.5 61.5t170.5 21.5h514v82q0 63 -38 106t-128 43h-647v209h649q100 0 172 -26.5t118 -74.5t66.5 -113.5t20.5 -141.5v-508q0 -59 -9.5 -100t-34 -66.5t-68.5 -38t-112 -12.5h-505q-193 0 -278 88t-85 242zM346 342 q0 -59 35 -95t117 -36h454q59 0 60 55v203h-510q-86 0 -121 -34t-35 -93zM438 1591h242l229 -440h-217z" />
<glyph unicode="&#xe1;" horiz-adv-x="1376" d="M133 0zM133 330q0 74 19.5 131t62.5 97t112.5 61.5t170.5 21.5h514v82q0 63 -38 106t-128 43h-647v209h649q100 0 172 -26.5t118 -74.5t66.5 -113.5t20.5 -141.5v-508q0 -59 -9.5 -100t-34 -66.5t-68.5 -38t-112 -12.5h-505q-193 0 -278 88t-85 242zM346 342 q0 -59 35 -95t117 -36h454q59 0 60 55v203h-510q-86 0 -121 -34t-35 -93zM475 1151l230 440h241l-256 -440h-215z" />
<glyph unicode="&#xe2;" horiz-adv-x="1376" d="M133 0zM133 330q0 74 19.5 131t62.5 97t112.5 61.5t170.5 21.5h514v82q0 63 -38 106t-128 43h-647v209h649q100 0 172 -26.5t118 -74.5t66.5 -113.5t20.5 -141.5v-508q0 -59 -9.5 -100t-34 -66.5t-68.5 -38t-112 -12.5h-505q-193 0 -278 88t-85 242zM287 1151l184 336 q29 57 86 80.5t139 23.5q80 0 136.5 -24.5t84.5 -79.5l187 -336h-232l-137 256q-10 18 -41 18t-41 -18l-135 -256h-231zM346 342q0 -59 35 -95t117 -36h454q59 0 60 55v203h-510q-86 0 -121 -34t-35 -93z" />
<glyph unicode="&#xe3;" horiz-adv-x="1376" d="M133 0zM133 330q0 74 19.5 131t62.5 97t112.5 61.5t170.5 21.5h514v82q0 63 -38 106t-128 43h-647v209h649q100 0 172 -26.5t118 -74.5t66.5 -113.5t20.5 -141.5v-508q0 -59 -9.5 -100t-34 -66.5t-68.5 -38t-112 -12.5h-505q-193 0 -278 88t-85 242zM217 1286v182h940 v-182h-940zM346 342q0 -59 35 -95t117 -36h454q59 0 60 55v203h-510q-86 0 -121 -34t-35 -93z" />
<glyph unicode="&#xe4;" horiz-adv-x="1376" d="M133 0zM133 330q0 74 19.5 131t62.5 97t112.5 61.5t170.5 21.5h514v82q0 63 -38 106t-128 43h-647v209h649q100 0 172 -26.5t118 -74.5t66.5 -113.5t20.5 -141.5v-508q0 -59 -9.5 -100t-34 -66.5t-68.5 -38t-112 -12.5h-505q-193 0 -278 88t-85 242zM332 1237v252h219 v-252h-219zM346 342q0 -59 35 -95t117 -36h454q59 0 60 55v203h-510q-86 0 -121 -34t-35 -93zM823 1237v252h219v-252h-219z" />
<glyph unicode="&#xe5;" horiz-adv-x="1376" d="M133 0zM133 330q0 74 19.5 131t62.5 97t112.5 61.5t170.5 21.5h514v82q0 63 -38 106t-128 43h-647v209h649q100 0 172 -26.5t118 -74.5t66.5 -113.5t20.5 -141.5v-508q0 -59 -9.5 -100t-34 -66.5t-68.5 -38t-112 -12.5h-505q-193 0 -278 88t-85 242zM346 342 q0 -59 35 -95t117 -36h454q59 0 60 55v203h-510q-86 0 -121 -34t-35 -93zM412 1415q0 121 54 178t150 57h142q94 0 149.5 -57t55.5 -178q0 -119 -55.5 -177.5t-149.5 -58.5h-142q-96 0 -150 58.5t-54 177.5zM524 1415q0 -68 24.5 -98.5t80.5 -30.5h114q53 0 79 30.5t26 98.5 q0 70 -25.5 100.5t-79.5 30.5h-114q-55 0 -80 -31t-25 -100z" />
<glyph unicode="&#xe6;" horiz-adv-x="2217" d="M133 330q0 74 19.5 131t62.5 97t112.5 61.5t170.5 21.5h514v82q0 63 -38 106t-128 43h-647v209h649q92 0 159.5 -22.5t112.5 -63.5q47 41 113.5 63.5t161.5 22.5h350q193 0 278.5 -87t85.5 -244q0 -150 -83.5 -231t-282.5 -81h-514v-78q0 -66 38 -107.5t128 -41.5h661 v-211h-661q-131 0 -217 45q-51 -45 -177 -45h-505q-193 0 -278 88t-85 242zM346 342q0 -59 35 -95t117 -36h454q59 0 60 55v203h-510q-86 0 -121 -34t-35 -93zM1229 608h508q88 0 123.5 35t35.5 94q0 61 -36.5 98t-116.5 37h-348q-90 0 -128 -43t-38 -106v-115z" />
<glyph unicode="&#xe7;" horiz-adv-x="1232" d="M104 0zM104 541q0 274 126 407t343 133h557v-209h-536q-141 0 -205.5 -77.5t-64.5 -253.5t64.5 -253t205.5 -77h536v-211h-557q-217 0 -343 133t-126 408zM514 -377h24q76 0 76 86v242h217v-219q0 -272 -250 -273h-67v164z" />
<glyph unicode="&#xe8;" horiz-adv-x="1335" d="M133 0zM133 356v369q0 76 20.5 141.5t66.5 113.5t117 74.5t173 26.5h350q193 0 279 -87t86 -244q0 -150 -84 -231t-283 -81h-514v-78q0 -66 38 -107.5t128 -41.5h661v-211h-661q-102 0 -173 26.5t-117 75t-66.5 113t-20.5 141.5zM344 608h508q88 0 124 35t36 94 q0 61 -37 98t-117 37h-348q-90 0 -128 -43t-38 -106v-115zM424 1591h242l229 -440h-217z" />
<glyph unicode="&#xe9;" horiz-adv-x="1335" d="M133 0zM133 356v369q0 76 20.5 141.5t66.5 113.5t117 74.5t173 26.5h350q193 0 279 -87t86 -244q0 -150 -84 -231t-283 -81h-514v-78q0 -66 38 -107.5t128 -41.5h661v-211h-661q-102 0 -173 26.5t-117 75t-66.5 113t-20.5 141.5zM344 608h508q88 0 124 35t36 94 q0 61 -37 98t-117 37h-348q-90 0 -128 -43t-38 -106v-115zM469 1151l230 440h241l-256 -440h-215z" />
<glyph unicode="&#xea;" horiz-adv-x="1335" d="M133 0zM133 356v369q0 76 20.5 141.5t66.5 113.5t117 74.5t173 26.5h350q193 0 279 -87t86 -244q0 -150 -84 -231t-283 -81h-514v-78q0 -66 38 -107.5t128 -41.5h661v-211h-661q-102 0 -173 26.5t-117 75t-66.5 113t-20.5 141.5zM261 1151l184 336q29 57 86 80.5 t139 23.5q80 0 136.5 -24.5t84.5 -79.5l187 -336h-232l-137 256q-10 18 -41 18t-41 -18l-135 -256h-231zM344 608h508q88 0 124 35t36 94q0 61 -37 98t-117 37h-348q-90 0 -128 -43t-38 -106v-115z" />
<glyph unicode="&#xeb;" horiz-adv-x="1335" d="M133 0zM133 356v369q0 76 20.5 141.5t66.5 113.5t117 74.5t173 26.5h350q193 0 279 -87t86 -244q0 -150 -84 -231t-283 -81h-514v-78q0 -66 38 -107.5t128 -41.5h661v-211h-661q-102 0 -173 26.5t-117 75t-66.5 113t-20.5 141.5zM320 1237v252h219v-252h-219zM344 608 h508q88 0 124 35t36 94q0 61 -37 98t-117 37h-348q-90 0 -128 -43t-38 -106v-115zM811 1237v252h219v-252h-219z" />
<glyph unicode="&#xec;" horiz-adv-x="569" d="M45 0zM45 1591h242l229 -440h-217zM197 0v1081h217v-1081h-217z" />
<glyph unicode="&#xed;" horiz-adv-x="567" d="M55 0zM55 1151l230 440h241l-256 -440h-215zM156 0v1081h217v-1081h-217z" />
<glyph unicode="&#xee;" horiz-adv-x="745" d="M-34 1151l184 336q29 57 86 80.5t139 23.5q80 0 136.5 -24.5t84.5 -79.5l187 -336h-232l-137 256q-10 18 -41 18t-41 -18l-135 -256h-231zM0 0zM265 0v1081h217v-1081h-217z" />
<glyph unicode="&#xef;" horiz-adv-x="708" d="M-2 1237v252h219v-252h-219zM0 0zM244 0v1081h217v-1081h-217zM489 1237v252h219v-252h-219z" />
<glyph unicode="&#xf0;" horiz-adv-x="1423" d="M104 500q0 248 126 376t343 128h478v67q0 119 -47.5 194.5t-167.5 75.5h-189l-80 -167h-121l80 167h-149v209h252l59 123h121l-59 -123h110q113 0 191.5 -31.5t127 -93t70 -150.5t21.5 -204v-606q0 -236 -101.5 -349.5t-296.5 -113.5h-299q-217 0 -343 125t-126 373z M324 508q0 -156 64.5 -226.5t205.5 -70.5h215q131 0 186.5 58.5t55.5 193.5v346h-457q-141 0 -205.5 -73.5t-64.5 -227.5z" />
<glyph unicode="&#xf1;" horiz-adv-x="1447" d="M156 0v913q0 96 34.5 132t116.5 36h447q276 0 410 -123.5t134 -349.5v-608h-219v608q0 129 -76.5 196.5t-248.5 67.5h-355q-27 0 -26 -30v-842h-217zM156 0zM254 1286v182h940v-182h-940z" />
<glyph unicode="&#xf2;" horiz-adv-x="1374" d="M104 0zM104 541q0 274 126 407t343 133h228q215 0 342 -134t127 -406q0 -274 -127 -407.5t-342 -133.5h-228q-217 0 -343 133t-126 408zM324 541q0 -176 64.5 -253t205.5 -77h186q141 0 206 77t65 253t-64.5 253.5t-206.5 77.5h-186q-141 0 -205.5 -77.5t-64.5 -253.5z M426 1591h242l229 -440h-217z" />
<glyph unicode="&#xf3;" horiz-adv-x="1374" d="M104 0zM104 541q0 274 126 407t343 133h228q215 0 342 -134t127 -406q0 -274 -127 -407.5t-342 -133.5h-228q-217 0 -343 133t-126 408zM324 541q0 -176 64.5 -253t205.5 -77h186q141 0 206 77t65 253t-64.5 253.5t-206.5 77.5h-186q-141 0 -205.5 -77.5t-64.5 -253.5z M475 1151l230 440h241l-256 -440h-215z" />
<glyph unicode="&#xf4;" horiz-adv-x="1374" d="M104 0zM104 541q0 274 126 407t343 133h228q215 0 342 -134t127 -406q0 -274 -127 -407.5t-342 -133.5h-228q-217 0 -343 133t-126 408zM279 1151l184 336q29 57 86 80.5t139 23.5q80 0 136.5 -24.5t84.5 -79.5l187 -336h-232l-137 256q-10 18 -41 18t-41 -18l-135 -256 h-231zM324 541q0 -176 64.5 -253t205.5 -77h186q141 0 206 77t65 253t-64.5 253.5t-206.5 77.5h-186q-141 0 -205.5 -77.5t-64.5 -253.5z" />
<glyph unicode="&#xf5;" horiz-adv-x="1374" d="M104 0zM104 541q0 274 126 407t343 133h228q215 0 342 -134t127 -406q0 -274 -127 -407.5t-342 -133.5h-228q-217 0 -343 133t-126 408zM217 1286v182h940v-182h-940zM324 541q0 -176 64.5 -253t205.5 -77h186q141 0 206 77t65 253t-64.5 253.5t-206.5 77.5h-186 q-141 0 -205.5 -77.5t-64.5 -253.5z" />
<glyph unicode="&#xf6;" horiz-adv-x="1374" d="M104 0zM104 541q0 274 126 407t343 133h228q215 0 342 -134t127 -406q0 -274 -127 -407.5t-342 -133.5h-228q-217 0 -343 133t-126 408zM324 541q0 -176 64.5 -253t205.5 -77h186q141 0 206 77t65 253t-64.5 253.5t-206.5 77.5h-186q-141 0 -205.5 -77.5t-64.5 -253.5z M332 1237v252h219v-252h-219zM823 1237v252h219v-252h-219z" />
<glyph unicode="&#xf7;" horiz-adv-x="1267" d="M82 49zM82 614v150h1102v-150h-1102zM516 49v279h234v-279h-234zM516 1057v279h234v-279h-234z" />
<glyph unicode="&#xf8;" horiz-adv-x="1374" d="M104 541q0 274 126 407t343 133h228q35 0 66.5 -4t62.5 -10l125 190h176l-162 -247q96 -63 148.5 -179t52.5 -290q0 -274 -127 -407.5t-342 -133.5h-228q-82 0 -149 18l-105 -159h-176l146 223q-90 63 -137.5 177t-47.5 282zM324 541q0 -201 86 -275l393 604 q-4 0 -10.5 1t-12.5 1h-186q-141 0 -205.5 -77.5t-64.5 -253.5zM551 213q10 -2 20.5 -2h22.5h186q141 0 206 77t65 253q0 211 -101 286z" />
<glyph unicode="&#xf9;" horiz-adv-x="1437" d="M150 0zM150 426v655h219v-647q0 -96 68.5 -159.5t197.5 -63.5h176q129 0 196.5 63.5t67.5 159.5v647h213v-655q0 -94 -29.5 -172t-89 -134.5t-146.5 -88t-204 -31.5h-201q-117 0 -203.5 31.5t-146 88t-89 134.5t-29.5 172zM459 1591h242l229 -440h-217z" />
<glyph unicode="&#xfa;" horiz-adv-x="1437" d="M150 0zM150 426v655h219v-647q0 -96 68.5 -159.5t197.5 -63.5h176q129 0 196.5 63.5t67.5 159.5v647h213v-655q0 -94 -29.5 -172t-89 -134.5t-146.5 -88t-204 -31.5h-201q-117 0 -203.5 31.5t-146 88t-89 134.5t-29.5 172zM508 1151l230 440h241l-256 -440h-215z" />
<glyph unicode="&#xfb;" horiz-adv-x="1437" d="M150 0zM150 426v655h219v-647q0 -96 68.5 -159.5t197.5 -63.5h176q129 0 196.5 63.5t67.5 159.5v647h213v-655q0 -94 -29.5 -172t-89 -134.5t-146.5 -88t-204 -31.5h-201q-117 0 -203.5 31.5t-146 88t-89 134.5t-29.5 172zM312 1151l184 336q29 57 86 80.5t139 23.5 q80 0 136.5 -24.5t84.5 -79.5l187 -336h-232l-137 256q-10 18 -41 18t-41 -18l-135 -256h-231z" />
<glyph unicode="&#xfc;" horiz-adv-x="1437" d="M150 0zM150 426v655h219v-647q0 -96 68.5 -159.5t197.5 -63.5h176q129 0 196.5 63.5t67.5 159.5v647h213v-655q0 -94 -29.5 -172t-89 -134.5t-146.5 -88t-204 -31.5h-201q-117 0 -203.5 31.5t-146 88t-89 134.5t-29.5 172zM363 1237v252h219v-252h-219zM854 1237v252h219 v-252h-219z" />
<glyph unicode="&#xfd;" horiz-adv-x="1325" d="M39 0zM39 1081h229l326 -805q10 -29 22.5 -37t42.5 -8h29l367 850h231l-651 -1515h-234l203 473q-92 0 -134 30.5t-69 102.5zM446 1151l230 440h241l-256 -440h-215z" />
<glyph unicode="&#xfe;" horiz-adv-x="1423" d="M158 37q0 94 48 134t144 40h479q141 0 206 77t65 251q0 178 -64.5 255.5t-206.5 77.5h-479q-96 0 -144 40t-48 135v503h217v-407q0 -35 15.5 -48.5t49.5 -13.5h412q215 0 341 -134t126 -408q0 -272 -126 -405.5t-341 -133.5h-412q-66 0 -65 -59v-375h-217v471z" />
<glyph unicode="&#xff;" horiz-adv-x="1325" d="M39 0zM39 1081h229l326 -805q10 -29 22.5 -37t42.5 -8h29l367 850h231l-651 -1515h-234l203 473q-92 0 -134 30.5t-69 102.5zM299 1237v252h219v-252h-219zM790 1237v252h219v-252h-219z" />
<glyph unicode="&#x152;" horiz-adv-x="2424" d="M117 688q0 350 160.5 522t463.5 172h1536v-241h-833q86 -133 104 -338h719v-219h-717q-18 -209 -102 -342h831v-242h-1538q-303 0 -463.5 170t-160.5 518zM358 690q0 -238 91.5 -343t291.5 -105h189q199 0 290 105.5t91 342.5q0 238 -90.5 344.5t-290.5 106.5h-189 q-201 0 -292 -106.5t-91 -344.5z" />
<glyph unicode="&#x153;" horiz-adv-x="2258" d="M104 541q0 274 126 407t343 133h228q207 0 327 -118q45 55 120 86.5t186 31.5h350q193 0 278.5 -87t85.5 -244q0 -150 -84 -231t-282 -81h-514v-78q0 -66 37.5 -107.5t128.5 -41.5h661v-211h-661q-111 0 -185.5 31.5t-120.5 87.5q-121 -119 -327 -119h-228 q-217 0 -343 133t-126 408zM324 541q0 -176 64.5 -253t205.5 -77h186q141 0 206 77t65 253t-64.5 253.5t-206.5 77.5h-186q-141 0 -205.5 -77.5t-64.5 -253.5zM1268 608h508q88 0 123.5 35t35.5 94q0 61 -36.5 98t-116.5 37h-348q-90 0 -128 -43t-38 -106v-115z" />
<glyph unicode="&#x178;" horiz-adv-x="1411" d="M27 0zM27 1382h292l388 -591l391 591h286l-557 -786v-596h-243v596zM349 1538v252h219v-252h-219zM840 1538v252h219v-252h-219z" />
<glyph unicode="&#x2c6;" horiz-adv-x="1044" d="M111 1151l184 336q29 57 86 80.5t139 23.5q80 0 136.5 -24.5t84.5 -79.5l187 -336h-232l-137 256q-10 18 -41 18t-41 -18l-135 -256h-231z" />
<glyph unicode="&#x2dc;" horiz-adv-x="1173" d="M111 1286v182h940v-182h-940zM111 1286z" />
<glyph unicode="&#x2000;" horiz-adv-x="946" />
<glyph unicode="&#x2001;" horiz-adv-x="1892" />
<glyph unicode="&#x2002;" horiz-adv-x="946" />
<glyph unicode="&#x2003;" horiz-adv-x="1892" />
<glyph unicode="&#x2004;" horiz-adv-x="630" />
<glyph unicode="&#x2005;" horiz-adv-x="473" />
<glyph unicode="&#x2006;" horiz-adv-x="315" />
<glyph unicode="&#x2007;" horiz-adv-x="315" />
<glyph unicode="&#x2008;" horiz-adv-x="236" />
<glyph unicode="&#x2009;" horiz-adv-x="378" />
<glyph unicode="&#x200a;" horiz-adv-x="105" />
<glyph unicode="&#x2010;" horiz-adv-x="849" d="M59 545v209h732v-209h-732z" />
<glyph unicode="&#x2011;" horiz-adv-x="849" d="M59 545v209h732v-209h-732z" />
<glyph unicode="&#x2012;" horiz-adv-x="849" d="M59 545v209h732v-209h-732z" />
<glyph unicode="&#x2013;" horiz-adv-x="1187" d="M59 545v209h1069v-209h-1069z" />
<glyph unicode="&#x2014;" horiz-adv-x="1615" d="M59 545v209h1500v-209h-1500z" />
<glyph unicode="&#x2018;" horiz-adv-x="509" d="M115 928v332q0 147 64.5 218.5t201.5 71.5h74v-178h-27q-78 0 -78 -88v-356h-235z" />
<glyph unicode="&#x2019;" horiz-adv-x="509" d="M57 928v178h25q80 0 80 88v357h233v-332q0 -291 -266 -291h-72zM57 928z" />
<glyph unicode="&#x201a;" horiz-adv-x="509" d="M57 0zM57 -166h25q80 0 80 88v357h233v-332q0 -291 -266 -291h-72v178z" />
<glyph unicode="&#x201c;" horiz-adv-x="980" d="M115 928v332q0 147 64.5 218.5t201.5 71.5h74v-178h-27q-78 0 -78 -88v-356h-235zM115 928zM586 928v332q0 147 64.5 218.5t201.5 71.5h74v-178h-27q-78 0 -78 -88v-356h-235z" />
<glyph unicode="&#x201d;" horiz-adv-x="980" d="M57 928v178h25q80 0 80 88v357h233v-332q0 -291 -266 -291h-72zM57 928zM528 928v178h25q80 0 80 88v357h233v-332q0 -291 -266 -291h-72z" />
<glyph unicode="&#x201e;" horiz-adv-x="980" d="M57 0zM57 -166h25q80 0 80 88v357h233v-332q0 -291 -266 -291h-72v178zM528 -166h25q80 0 80 88v357h233v-332q0 -291 -266 -291h-72v178z" />
<glyph unicode="&#x2022;" horiz-adv-x="894" d="M131 713q0 137 59.5 202.5t163.5 65.5h176q104 0 165 -65.5t61 -202.5t-60.5 -203t-165.5 -66h-176q-104 0 -163.5 65.5t-59.5 203.5z" />
<glyph unicode="&#x2026;" horiz-adv-x="1566" d="M158 0v279h234v-279h-234zM158 0zM666 0v279h234v-279h-234zM1175 0v279h234v-279h-234z" />
<glyph unicode="&#x202f;" horiz-adv-x="378" />
<glyph unicode="&#x2039;" horiz-adv-x="518" d="M61 559q0 51 19 92l231 467h146l-252 -522q-10 -16 -10 -37q0 -16 10 -37l252 -522h-146l-231 467q-18 39 -19 92z" />
<glyph unicode="&#x203a;" horiz-adv-x="518" d="M61 0l252 522q4 10 6.5 18.5t2.5 18.5q0 16 -9 37l-252 522h144l233 -467q18 -41 19 -92q0 -25 -5.5 -48.5t-13.5 -43.5l-233 -467h-144z" />
<glyph unicode="&#x205f;" horiz-adv-x="473" />
<glyph unicode="&#x20ac;" horiz-adv-x="1386" d="M61 494l41 112h105q-2 20 -2 41v43v45.5t2 44.5h-146l41 113h119q45 248 198.5 368.5t409.5 120.5h484l-99 -221h-393q-156 0 -245 -63.5t-121 -204.5h641l-41 -113h-617q-2 -23 -2 -44v-44v-44t2 -42h543l-41 -112h-485q31 -141 120 -206t246 -65h393v-223h-385 q-258 0 -412.5 122t-197.5 372h-158z" />
<glyph unicode="&#x2122;" horiz-adv-x="2119" d="M92 1405v145h631v-145h-242v-684h-145v684h-244zM834 721v659q0 84 48 134.5t150 50.5q88 0 139.5 -43t69.5 -121l117 -506q10 -47 55 -47q43 0 55 47l117 506q16 78 64.5 121t138.5 43q102 0 151.5 -50.5t49.5 -134.5v-659h-146v651q0 53 -57 53q-49 0 -60 -45 l-118 -508q-18 -82 -64.5 -123.5t-132.5 -41.5t-134 43t-67 122l-116 508q-10 45 -58 45q-59 0 -59 -53v-651h-143z" />
<glyph unicode="&#x25fc;" horiz-adv-x="1085" d="M0 0v1085h1085v-1085h-1085z" />
</font>
</defs>
</svg>
